<svg width="37" height="31" viewBox="0 0 37 31" fill="none" xmlns="http://www.w3.org/2000/svg">
<path d="M18.4319 23.6412C14.1077 23.6412 10.6073 20.2941 10.2852 16.0526L4.30492 11.4309C3.51876 12.4172 2.79531 13.4599 2.21154 14.6C2.08112 14.858 2.01317 15.143 2.01317 15.4321C2.01317 15.7212 2.08112 16.0062 2.21154 16.2642C5.30315 22.2963 11.4237 26.3776 18.4319 26.3776C19.966 26.3776 21.4459 26.1496 22.8723 25.7813L19.9141 23.4924C19.4255 23.5868 18.9294 23.6366 18.4319 23.6412ZM36.3225 26.9534L30.0202 22.0825C31.9346 20.4691 33.5092 18.4911 34.6522 16.2636C34.7826 16.0056 34.8505 15.7206 34.8505 15.4315C34.8505 15.1425 34.7826 14.8575 34.6522 14.5995C31.5605 8.56731 25.44 4.48601 18.4319 4.48601C15.4967 4.48957 12.6093 5.22848 10.0332 6.63526L2.78049 1.02953C2.68591 0.955936 2.57776 0.901699 2.46221 0.869919C2.34667 0.838139 2.22599 0.829438 2.10708 0.844315C1.98817 0.859193 1.87336 0.897355 1.7692 0.956622C1.66504 1.01589 1.57359 1.0951 1.50006 1.18973L0.380963 2.63035C0.23251 2.82133 0.165989 3.06345 0.196031 3.30346C0.226072 3.54347 0.350217 3.76172 0.54116 3.91022L34.0832 29.8341C34.1778 29.9077 34.2859 29.9619 34.4015 29.9937C34.517 30.0255 34.6377 30.0342 34.7566 30.0193C34.8755 30.0044 34.9903 29.9663 35.0945 29.907C35.1987 29.8477 35.2901 29.7685 35.3636 29.6739L36.4833 28.2333C36.6317 28.0422 36.6981 27.8001 36.668 27.5601C36.6378 27.32 36.5136 27.1018 36.3225 26.9534ZM25.8488 18.8581L23.6083 17.1261C23.797 16.5808 23.8971 16.0088 23.9048 15.4318C23.9159 14.5871 23.7287 13.7515 23.3584 12.9922C22.988 12.233 22.4447 11.5711 21.7721 11.0599C21.0996 10.5487 20.3165 10.2023 19.4858 10.0486C18.6551 9.89493 17.7999 9.93821 16.9889 10.175C17.3327 10.6408 17.5187 11.2043 17.5197 11.7832C17.5112 11.9759 17.4818 12.167 17.4319 12.3533L13.2354 9.11004C14.6932 7.89187 16.5321 7.22387 18.4319 7.22246C19.5101 7.22186 20.5779 7.43379 21.5741 7.84614C22.5704 8.25849 23.4756 8.86316 24.2381 9.62559C25.0005 10.388 25.6052 11.2932 26.0175 12.2895C26.4299 13.2858 26.6418 14.3536 26.6412 15.4318C26.6412 16.6649 26.3396 17.8142 25.8488 18.8587V18.8581Z" fill="#6B6B6B"/>
</svg>
