<svg width="37" height="26" viewBox="0 0 37 26" fill="none" xmlns="http://www.w3.org/2000/svg">
<path d="M36.4544 12.1818C33.0192 5.47942 26.2187 0.944641 18.4318 0.944641C10.645 0.944641 3.84248 5.48259 0.409244 12.1825C0.26434 12.4691 0.188843 12.7858 0.188843 13.107C0.188843 13.4281 0.26434 13.7448 0.409244 14.0315C3.84438 20.7339 10.645 25.2687 18.4318 25.2687C26.2187 25.2687 33.0211 20.7307 36.4544 14.0308C36.5993 13.7442 36.6748 13.4275 36.6748 13.1063C36.6748 12.7851 36.5993 12.4685 36.4544 12.1818ZM18.4318 22.2282C16.6278 22.2282 14.8642 21.6932 13.3642 20.6909C11.8642 19.6886 10.695 18.264 10.0046 16.5973C9.31426 14.9306 9.13362 13.0965 9.48558 11.3271C9.83753 9.55773 10.7063 7.93243 11.9819 6.65677C13.2576 5.3811 14.8829 4.51237 16.6523 4.16041C18.4217 3.80845 20.2557 3.98909 21.9225 4.67948C23.5892 5.36986 25.0138 6.53899 26.0161 8.03901C27.0183 9.53903 27.5533 11.3026 27.5533 13.1066C27.5539 14.3047 27.3184 15.4911 26.8602 16.598C26.402 17.7049 25.7301 18.7107 24.883 19.5578C24.0359 20.4049 23.0301 21.0768 21.9232 21.535C20.8162 21.9932 19.6298 22.2287 18.4318 22.2282ZM18.4318 7.02564C17.889 7.03323 17.3498 7.11398 16.8286 7.26572C17.2582 7.84954 17.4644 8.56799 17.4097 9.29078C17.355 10.0136 17.0431 10.6928 16.5306 11.2054C16.018 11.7179 15.3387 12.0298 14.6159 12.0845C13.8932 12.1392 13.1747 11.933 12.5909 11.5034C12.2584 12.7282 12.3184 14.0264 12.7625 15.2154C13.2065 16.4043 14.0122 17.424 15.0661 18.131C16.12 18.8381 17.3692 19.1968 18.6377 19.1567C19.9061 19.1167 21.1301 18.6798 22.1373 17.9077C23.1446 17.1355 23.8843 16.067 24.2524 14.8524C24.6205 13.6378 24.5984 12.3384 24.1893 11.137C23.7802 9.93564 23.0047 8.89279 21.9719 8.15526C20.939 7.41773 19.7009 7.02266 18.4318 7.02564Z" fill="#6B6B6B"/>
</svg>
