<svg width="45" height="45" viewBox="0 0 45 45" fill="none" xmlns="http://www.w3.org/2000/svg">
<path d="M11.25 41.25C10.2188 41.25 9.33563 40.8825 8.60063 40.1475C7.86563 39.4125 7.49875 38.53 7.5 37.5V18.75C7.5 17.7188 7.8675 16.8356 8.6025 16.1006C9.3375 15.3656 10.22 14.9988 11.25 15H13.125V11.25C13.125 8.65625 14.0394 6.445 15.8681 4.61625C17.6969 2.7875 19.9075 1.87375 22.5 1.875C25.0938 1.875 27.305 2.78938 29.1338 4.61813C30.9625 6.44688 31.8763 8.6575 31.875 11.25V15H33.75C34.7813 15 35.6644 15.3675 36.3994 16.1025C37.1344 16.8375 37.5013 17.72 37.5 18.75V37.5C37.5 38.5312 37.1325 39.4144 36.3975 40.1494C35.6625 40.8844 34.78 41.2513 33.75 41.25H11.25ZM22.5 31.875C23.5313 31.875 24.4144 31.5075 25.1494 30.7725C25.8844 30.0375 26.2513 29.155 26.25 28.125C26.25 27.0938 25.8825 26.2106 25.1475 25.4756C24.4125 24.7406 23.53 24.3738 22.5 24.375C21.4688 24.375 20.5856 24.7425 19.8506 25.4775C19.1156 26.2125 18.7488 27.095 18.75 28.125C18.75 29.1563 19.1175 30.0394 19.8525 30.7744C20.5875 31.5094 21.47 31.8762 22.5 31.875ZM16.875 15H28.125V11.25C28.125 9.6875 27.5781 8.35938 26.4844 7.26563C25.3906 6.17188 24.0625 5.625 22.5 5.625C20.9375 5.625 19.6094 6.17188 18.5156 7.26563C17.4219 8.35938 16.875 9.6875 16.875 11.25V15Z" fill="#6B6B6B"/>
</svg>
