<svg width="45" height="45" viewBox="0 0 45 45" fill="none" xmlns="http://www.w3.org/2000/svg">
<path d="M41.25 14.1282V31.875C41.2501 33.3098 40.7019 34.6904 39.7176 35.7343C38.7333 36.7782 37.3873 37.4065 35.955 37.4907L35.625 37.5H9.375C7.94023 37.5001 6.55966 36.9519 5.51576 35.9676C4.47186 34.9833 3.84355 33.6374 3.75938 32.205L3.75 31.875V14.1282L21.4594 25.935L21.6769 26.0588C21.9332 26.184 22.2147 26.2491 22.5 26.2491C22.7853 26.2491 23.0668 26.184 23.3231 26.0588L23.5406 25.935L41.25 14.1282Z" fill="#6B6B6B"/>
<path d="M35.625 7.5C37.65 7.5 39.4256 8.56875 40.4156 10.1756L22.5 22.1194L4.58437 10.1756C5.05449 9.41206 5.7004 8.772 6.4682 8.30884C7.236 7.84568 8.10343 7.57286 8.99812 7.51312L9.375 7.5H35.625Z" fill="#6B6B6B"/>
</svg>
