<svg width="45" height="45" viewBox="0 0 45 45" fill="none" xmlns="http://www.w3.org/2000/svg">
<path d="M28.6667 27.5193C28.3915 27.4293 26.6521 26.6452 27.739 23.3412H27.7235C30.5567 20.4231 32.7219 15.7275 32.7219 11.1046C32.7219 3.99637 27.9952 0.27002 22.5017 0.27002C17.0048 0.27002 12.304 3.99463 12.304 11.1046C12.304 15.7466 14.4571 20.4612 17.3077 23.3723C18.4188 26.2869 16.4319 27.3687 16.0165 27.521C10.2635 29.6014 3.51346 33.3935 3.51346 37.1371V38.5408C3.51346 43.6414 13.4031 44.801 22.5554 44.801C31.7215 44.801 41.4865 43.6414 41.4865 38.5408V37.1371C41.4865 33.281 34.7037 29.5183 28.6667 27.5193Z" fill="#6B6B6B"/>
</svg>
