<svg width="36" height="36" viewBox="0 0 36 36" fill="none" xmlns="http://www.w3.org/2000/svg">
<path d="M33 33.0001L25.7616 25.7618M25.7616 25.7618C26.9998 24.5236 27.9819 23.0537 28.652 21.436C29.3221 19.8183 29.667 18.0844 29.667 16.3334C29.667 14.5824 29.3221 12.8486 28.652 11.2309C27.9819 9.61314 26.9998 8.14325 25.7616 6.9051C24.5235 5.66695 23.0536 4.6848 21.4359 4.01472C19.8182 3.34464 18.0843 2.99976 16.3333 2.99976C14.5823 2.99976 12.8484 3.34464 11.2307 4.01472C9.61302 4.6848 8.14312 5.66695 6.90498 6.9051C4.40443 9.40565 2.99963 12.7971 2.99963 16.3334C2.99963 19.8697 4.40443 23.2612 6.90498 25.7618C9.40553 28.2623 12.797 29.6671 16.3333 29.6671C19.8696 29.6671 23.2611 28.2623 25.7616 25.7618Z" stroke="#6B6B6B" stroke-width="4.16667" stroke-linecap="round" stroke-linejoin="round"/>
</svg>
