<svg width="244" height="61" viewBox="0 0 244 61" fill="none" xmlns="http://www.w3.org/2000/svg">
<g clip-path="url(#clip0_191_256)">
<path d="M43.6553 4.03088C45.1225 3.66802 46.0533 4.51207 46.8421 6.01084C48.1752 8.55875 49.6898 11.0199 51.1728 13.4968C51.725 14.4118 51.7881 15.2007 51.2201 16.163C48.3803 20.9907 45.5879 25.8341 42.8112 30.6932C42.188 31.7897 41.8804 31.7187 41.0995 30.7169C39.3956 28.5319 39.4745 26.6544 41.0679 24.3668C42.9374 21.6848 44.3652 18.7031 46.0454 15.887C46.5187 15.0902 46.4714 14.4828 46.0139 13.7177C44.4756 11.1461 42.9769 8.55086 41.5097 5.93985C40.5236 4.18076 40.6183 4.05455 42.7087 4.03877C42.9217 4.03088 43.1504 4.03088 43.6553 4.03088Z" fill="#363841"/>
<path d="M59.8736 28.7369C60.9227 29.8176 60.6624 31.0561 59.7631 32.4839C58.2328 34.9213 56.8681 37.4693 55.4798 39.9935C54.9671 40.9243 54.3123 41.3818 53.2001 41.3818C47.6073 41.3582 42.0066 41.3818 36.4138 41.4292C35.1517 41.4371 35.0571 41.1452 35.5304 39.9541C36.5637 37.3825 38.2282 36.5069 40.9969 36.7278C44.2548 36.996 47.5521 36.7199 50.8257 36.7593C51.7486 36.7672 52.2535 36.428 52.6873 35.6392C54.1309 33.0124 55.6218 30.4171 57.1442 27.8298C58.1697 26.0865 58.3275 26.1102 59.3924 27.9087C59.5107 28.1059 59.6211 28.2952 59.8736 28.7369Z" fill="#363841"/>
<path d="M46.6923 55.1785C46.29 56.6299 45.083 57.0322 43.4028 56.9691C40.5236 56.8745 37.6365 56.977 34.7573 57.048C33.6924 57.0717 32.9746 56.7404 32.4145 55.778C29.6141 50.9346 26.7744 46.107 23.9188 41.2951C23.272 40.2066 23.485 39.9778 24.7471 39.7964C27.4922 39.3941 29.0856 40.388 30.2847 42.8965C31.6967 45.8467 33.5898 48.5602 35.2069 51.4079C35.6645 52.2125 36.2166 52.4728 37.1159 52.4492C40.1134 52.3782 43.111 52.3545 46.1006 52.3703C48.12 52.3782 48.1752 52.528 47.1656 54.3502C47.0551 54.5474 46.9447 54.7446 46.6923 55.1785Z" fill="#363841"/>
<path d="M17.2137 57.1111C15.7544 57.4897 14.8078 56.6536 14.0111 55.1706C12.6464 52.6384 11.1003 50.1931 9.59368 47.7398C9.03361 46.8327 8.96261 46.0438 9.51479 45.0736C12.2915 40.2144 15.0287 35.3316 17.7501 30.4408C18.3654 29.3365 18.6652 29.3996 19.4619 30.4014C21.1894 32.5707 21.1342 34.4481 19.5723 36.7515C17.7344 39.4571 16.346 42.4547 14.6974 45.2866C14.232 46.0912 14.2872 46.6986 14.7526 47.4558C16.3224 50.0038 17.8448 52.5832 19.3515 55.1785C20.3612 56.9297 20.2665 57.0559 18.1761 57.0953C17.9395 57.1032 17.7107 57.1032 17.2137 57.1111Z" fill="#363841"/>
<path d="M0.703611 32.6022C-0.361305 31.5294 -0.116768 30.2909 0.766718 28.8553C2.27338 26.402 3.6065 23.8383 4.96328 21.2904C5.46813 20.3517 6.10708 19.8863 7.22721 19.8784C12.82 19.839 18.4207 19.7443 24.0135 19.6339C25.2756 19.6102 25.3702 19.9021 24.9127 21.0932C23.9109 23.6806 22.2623 24.5719 19.4856 24.3826C16.2277 24.1538 12.9304 24.4615 9.6568 24.4694C8.73387 24.4694 8.22902 24.8244 7.81094 25.6132C6.39894 28.2557 4.93961 30.8747 3.44873 33.4699C2.44692 35.2211 2.28915 35.1974 1.20057 33.4226C1.07436 33.2332 0.956036 33.036 0.703611 32.6022Z" fill="#363841"/>
<path d="M13.5615 6.00296C13.948 4.54363 15.147 4.13344 16.8272 4.17288C19.7064 4.23599 22.5935 4.094 25.4727 3.99145C26.5377 3.95201 27.2634 4.27543 27.8313 5.2378C30.6869 10.0496 33.5819 14.8378 36.5006 19.6181C37.1553 20.6988 36.9502 20.9276 35.6881 21.1327C32.9508 21.5665 31.3416 20.5884 30.1111 18.0957C28.6675 15.1691 26.7428 12.4792 25.0862 9.64735C24.6208 8.85063 24.0686 8.59032 23.1694 8.62187C20.1718 8.73231 17.1822 8.78752 14.1846 8.81119C12.1652 8.82696 12.1021 8.67709 13.0961 6.84701C13.2065 6.64191 13.3169 6.44471 13.5615 6.00296Z" fill="#363841"/>
<path d="M22.8933 12.5976C19.6433 12.6134 16.3934 12.7396 13.1434 12.7475C12.4177 11.509 11.0609 10.6729 9.52268 10.6729C7.20353 10.6729 5.31824 12.5581 5.31824 14.8773C5.31824 17.1965 7.20353 19.0817 9.52268 19.0817C10.9741 19.0817 12.252 18.3481 13.0093 17.228C15.218 17.1412 17.4346 17.0308 19.6276 17.1965C21.9388 17.37 23.0037 16.2104 23.9424 14.4987C24.7707 12.9605 24.6129 12.5897 22.8933 12.5976ZM9.52268 17.0781C9.31759 17.0781 9.1125 17.0466 8.92318 16.9992C8.00025 16.7389 7.32186 15.887 7.32186 14.8773C7.32186 13.6625 8.30789 12.6765 9.52268 12.6765C9.88555 12.6765 10.2326 12.7632 10.5403 12.921C11.2423 13.2918 11.7235 14.0254 11.7235 14.8773C11.7235 16.0921 10.7375 17.0781 9.52268 17.0781Z" fill="#363841"/>
<path d="M13.2618 27.9166C12.3625 26.4257 11.9523 26.3705 11.1004 27.8614C9.34918 30.8984 7.71631 33.9985 5.94145 37.0197C5.9099 37.0749 5.87834 37.1301 5.84679 37.1774C3.59074 37.2405 1.76855 39.1022 1.76855 41.374C1.76855 43.6931 3.65385 45.5784 5.973 45.5784C8.29215 45.5784 10.1775 43.6931 10.1775 41.374C10.1775 40.6956 10.0118 40.0488 9.72782 39.4808C10.9111 37.2879 12.0233 35.0476 13.4353 33.0045C14.7369 31.0956 14.2636 29.5889 13.2618 27.9166ZM8.05551 42.0682C7.76364 42.9438 6.93537 43.5827 5.96511 43.5827C4.75032 43.5827 3.76429 42.5967 3.76429 41.3819C3.76429 40.4747 4.31647 39.6859 5.10529 39.3546C5.36561 39.2442 5.65747 39.1811 5.96511 39.1811C7.17991 39.1811 8.16594 40.1671 8.16594 41.3819C8.16594 41.6185 8.1265 41.8473 8.05551 42.0682Z" fill="#363841"/>
<path d="M42.3852 15.39C40.7523 12.4556 39.009 9.58425 37.3919 6.64192C37.8889 5.95564 38.1729 5.1116 38.1729 4.20445C38.1729 1.8853 36.2876 0 33.9684 0C31.6493 0 29.764 1.8853 29.764 4.20445C29.764 6.24751 31.2312 7.95926 33.1717 8.33001C34.4338 10.4441 35.7591 12.5187 36.7688 14.7432C37.7311 16.8572 39.2615 17.228 41.2177 17.2201C42.9689 17.2122 43.2214 16.8888 42.3852 15.39ZM36.114 4.7093C35.8853 5.67955 35.0097 6.40528 33.9684 6.40528C33.0297 6.40528 32.2172 5.80577 31.9096 4.9775C31.8228 4.74085 31.7676 4.48054 31.7676 4.20445C31.7676 2.98966 32.7536 2.00362 33.9684 2.00362C35.1832 2.00362 36.1693 2.98966 36.1693 4.20445C36.1771 4.37799 36.1535 4.54364 36.114 4.7093Z" fill="#363841"/>
<path d="M54.9592 16.1C52.64 16.1 50.7547 17.9853 50.7547 20.3044C50.7547 20.7856 50.8336 21.2431 50.9835 21.6691C49.7529 23.8778 48.6012 26.1339 47.1577 28.1848C45.8166 30.078 46.2663 31.5925 47.2523 33.2727C48.1358 34.7794 48.546 34.8346 49.4137 33.3595C51.157 30.4172 52.7899 27.4118 54.549 24.4852C54.6831 24.501 54.8172 24.501 54.9513 24.501C57.2704 24.501 59.1557 22.6157 59.1557 20.2965C59.1557 17.9774 57.2783 16.1 54.9592 16.1ZM55.5192 22.4264C55.3378 22.4737 55.1564 22.4974 54.9592 22.4974C53.7444 22.4974 52.7583 21.5113 52.7583 20.2965C52.7583 19.839 52.9003 19.413 53.1449 19.0581C53.5393 18.4743 54.2098 18.0957 54.9592 18.0957C56.174 18.0957 57.16 19.0817 57.16 20.2965C57.16 21.322 56.4658 22.1818 55.5192 22.4264Z" fill="#363841"/>
<path d="M51.5277 42.3127C50.1788 42.3127 48.9719 42.9595 48.1989 43.9534C45.7141 44.0087 43.2293 44.1428 40.7681 43.9219C38.4569 43.7168 37.3762 44.8685 36.4217 46.5645C35.5698 48.0869 35.7196 48.4655 37.4393 48.4734C40.8943 48.4971 44.3494 48.3945 47.8045 48.4419C48.5065 49.7829 49.9106 50.7058 51.5277 50.7058C53.8469 50.7058 55.7322 48.8205 55.7322 46.5014C55.7322 44.198 53.8469 42.3127 51.5277 42.3127ZM51.5277 48.7101C50.9834 48.7101 50.4865 48.5129 50.0999 48.1816C49.6267 47.7793 49.3269 47.1797 49.3269 46.5092C49.3269 45.2945 50.3129 44.3084 51.5277 44.3084H51.5356C52.7504 44.3084 53.7364 45.2945 53.7364 46.5092C53.7286 47.724 52.7425 48.7101 51.5277 48.7101Z" fill="#363841"/>
<path d="M27.6184 52.6621C26.3405 50.5796 24.9916 48.5207 23.9582 46.3199C22.9722 44.2216 21.434 43.8667 19.4856 43.8982C17.7423 43.9219 17.4899 44.2532 18.3418 45.7362C20.0062 48.6469 21.7811 51.4946 23.4297 54.4054C22.9564 55.0838 22.6803 55.912 22.6803 56.7955C22.6803 59.1147 24.5656 61 26.8848 61C29.2039 61 31.0892 59.1147 31.0892 56.7955C31.0892 54.7367 29.5826 53.0171 27.6184 52.6621ZM26.8848 59.0043C25.67 59.0043 24.684 58.0182 24.684 56.8034C24.684 56.6457 24.6997 56.4879 24.7313 56.338C24.9443 55.3441 25.8278 54.5947 26.8848 54.5947C27.8235 54.5947 28.6281 55.1863 28.9436 56.0146C29.0304 56.2591 29.0856 56.5194 29.0856 56.7955C29.0856 58.0182 28.0996 59.0043 26.8848 59.0043Z" fill="#363841"/>
<path d="M85.7133 40.7942C84.7802 40.7942 84.0891 40.7769 83.6398 40.7424L81.4109 48.2586C80.5815 48.4659 79.4238 48.5696 77.9379 48.5696C76.2791 48.5696 74.9314 48.3795 73.8947 47.9994L73.6355 47.5847L85.0394 12.8028C86.3871 12.5954 87.9595 12.4918 89.7565 12.4918C91.7954 12.4918 93.4196 12.6127 94.6291 12.8546L105.826 47.6884C104.616 48.345 103.251 48.6733 101.731 48.6733C99.9336 48.6733 98.6723 48.3622 97.9466 47.7402C97.2209 47.1182 96.5988 45.926 96.0805 44.1635L95.0956 40.7424C94.6463 40.7769 93.9725 40.7942 93.074 40.7942H85.7133ZM85.5578 34.2629L87.6312 34.211H91.4152C91.588 34.211 91.8904 34.2197 92.3224 34.2369C92.7543 34.2542 93.074 34.2629 93.2813 34.2629L92.4001 31.049C91.5707 28.1462 90.6204 24.5868 89.5491 20.3708H89.2381C88.9617 21.8568 88.1323 25.157 86.75 30.2715L85.5578 34.2629ZM107.795 26.0728C107.968 25.3816 108.296 24.6127 108.78 23.7661C109.264 22.9194 109.748 22.306 110.232 21.9259C113.411 22.1678 115.623 23.7402 116.867 26.643C118.18 23.5328 120.34 21.9777 123.346 21.9777C124.245 21.9777 125.385 22.116 126.767 22.3924C126.767 23.4637 126.586 24.7337 126.223 26.2024C125.86 27.6711 125.368 28.9238 124.746 29.9605C124.158 29.7531 123.277 29.5804 122.102 29.4421C120.374 29.4421 118.957 30.3233 117.852 32.0858V48.2067C116.711 48.4141 115.372 48.5178 113.834 48.5178C112.296 48.5178 110.94 48.4141 109.765 48.2067V31.4637C109.765 28.8719 109.109 27.0749 107.795 26.0728ZM149.316 37.8914H135.787C135.856 39.4465 136.253 40.656 136.979 41.5199C137.705 42.3838 138.897 42.8158 140.556 42.8158C141.385 42.8158 142.344 42.6949 143.433 42.4529C144.521 42.211 145.774 41.8136 147.191 41.2607C148.331 42.4357 149.04 44.0253 149.316 46.0296C146.551 47.9994 143.165 48.9843 139.156 48.9843C136.979 48.9843 135.156 48.6387 133.687 47.9476C132.219 47.2564 131.027 46.2888 130.111 45.0447C129.195 43.8007 128.547 42.332 128.167 40.6387C127.787 38.9454 127.597 37.0966 127.597 35.0922C127.597 33.157 127.83 31.3687 128.297 29.7272C128.763 28.0857 129.471 26.6603 130.422 25.4508C131.372 24.2412 132.582 23.2909 134.05 22.5998C135.519 21.9086 137.238 21.5631 139.208 21.5631C140.867 21.5631 142.361 21.8395 143.692 22.3924C145.022 22.9453 146.154 23.7056 147.087 24.6732C148.02 25.6408 148.737 26.7985 149.238 28.1462C149.739 29.494 149.99 30.9626 149.99 32.5523C149.99 34.6603 149.765 36.44 149.316 37.8914ZM135.735 32.2931H142.577V31.7229C142.577 30.4443 142.292 29.3903 141.722 28.5609C141.152 27.7315 140.297 27.3168 139.156 27.3168C138.05 27.3168 137.23 27.7056 136.694 28.4832C136.158 29.2607 135.839 30.5307 135.735 32.2931ZM176.893 44.4745C176.72 45.2003 176.392 45.9778 175.908 46.8072C175.424 47.6365 174.923 48.2413 174.405 48.6214C171.986 48.5523 170.12 47.6365 168.806 45.8741C166.56 47.9476 164.124 48.9843 161.497 48.9843C160.15 48.9843 158.975 48.7683 157.973 48.3363C156.97 47.9044 156.124 47.3255 155.433 46.5998C154.742 45.8741 154.223 45.0361 153.878 44.0858C153.532 43.1355 153.359 42.1419 153.359 41.1052C153.359 39.6192 153.627 38.3147 154.163 37.1916C154.698 36.0685 155.433 35.1354 156.366 34.3925C157.299 33.6495 158.387 33.0879 159.631 32.7078C160.875 32.3277 162.206 32.1376 163.623 32.1376C164.418 32.1376 165.117 32.1462 165.722 32.1635C166.327 32.1808 166.854 32.2067 167.303 32.2413V31.2564C167.303 29.0793 166.18 27.9907 163.934 27.9907C162.482 27.9907 159.942 28.5436 156.314 29.6495C155.277 28.44 154.621 26.5566 154.344 23.9993C155.173 23.6883 156.098 23.3946 157.117 23.1181C158.137 22.8417 159.182 22.5998 160.253 22.3924C161.325 22.1851 162.379 22.0209 163.415 21.9C164.452 21.779 165.385 21.7186 166.215 21.7186C167.424 21.7186 168.59 21.8913 169.713 22.2369C170.837 22.5825 171.821 23.1095 172.668 23.8179C173.515 24.5263 174.189 25.4421 174.69 26.5652C175.191 27.6883 175.441 29.0274 175.441 30.5825V41.1052C175.441 42.6948 175.925 43.818 176.893 44.4745ZM161.238 40.5869C161.238 42.211 162.171 43.0231 164.037 43.0231C165.005 43.0231 166.094 42.5221 167.303 41.5199V37.373C166.612 37.3385 166.033 37.3125 165.567 37.2953C165.1 37.278 164.746 37.2693 164.504 37.2693C162.327 37.2693 161.238 38.3752 161.238 40.5869ZM213.178 14.617C213.558 15.6538 213.748 16.7596 213.748 17.9345C213.748 20.1808 212.608 21.3039 210.327 21.3039H201.411V22.7034L201.204 25.1397L201.048 26.0209C201.912 25.8136 202.845 25.7099 203.847 25.7099C207.372 25.7099 210.102 26.7121 212.038 28.7164C213.973 30.7207 214.94 33.3989 214.94 36.751C214.94 38.6862 214.603 40.4141 213.93 41.9346C213.256 43.4551 212.34 44.7337 211.182 45.7704C210.025 46.8072 208.66 47.602 207.087 48.1549C205.515 48.7078 203.847 48.9843 202.085 48.9843C197.8 48.9843 194.344 47.7921 191.718 45.4076C191.787 44.9929 191.925 44.535 192.133 44.0339C192.34 43.5329 192.59 43.0404 192.884 42.5566C193.178 42.0728 193.506 41.6149 193.869 41.183C194.232 40.751 194.603 40.3968 194.983 40.1203C196.158 40.9497 197.282 41.5458 198.353 41.9087C199.424 42.2715 200.409 42.4529 201.307 42.4529C203.001 42.4529 204.323 41.9432 205.273 40.9238C206.223 39.9043 206.698 38.6171 206.698 37.062C206.698 35.4033 206.206 34.1246 205.221 33.2261C204.236 32.3277 203.035 31.8784 201.618 31.8784C200.893 31.8784 200.141 32.008 199.364 32.2672C198.586 32.5264 197.817 32.9324 197.057 33.4853C196.366 33.3125 195.623 32.9583 194.828 32.4227C194.033 31.887 193.428 31.3082 193.014 30.6862L193.947 15.0317L194.361 14.617H213.178ZM228.677 41.6236L228.625 37.7877V30.9972C228.625 30.4788 228.677 29.494 228.781 28.0426C228.884 26.5911 228.953 25.5717 228.988 24.9842C227.191 26.9886 224.893 28.5782 222.094 29.7531C221.299 29.4076 220.573 28.7942 219.917 27.913C219.26 27.0317 218.863 26.0901 218.724 25.0879C223.562 22.0814 226.949 18.5911 228.884 14.617C230.059 14.4097 231.346 14.306 232.746 14.306C234.146 14.306 235.398 14.4097 236.504 14.617V37.7877L236.452 41.6236L239.977 41.5717H242.776C243.053 42.6085 243.191 43.7143 243.191 44.8892C243.191 46.0642 243.053 47.17 242.776 48.2067H221.161C220.884 47.1009 220.746 45.9778 220.746 44.8374C220.746 43.697 220.884 42.6085 221.161 41.5717H225.359L228.677 41.6236Z" fill="#363841"/>
</g>
<defs>
<clipPath id="clip0_191_256">
<rect width="243.191" height="61" fill="white"/>
</clipPath>
</defs>
</svg>
