<svg width="244" height="61" viewBox="0 0 244 61" fill="none" xmlns="http://www.w3.org/2000/svg">
<g clip-path="url(#clip0_246_95)">
<path d="M43.6553 4.03082C45.1225 3.66796 46.0533 4.51201 46.8422 6.01078C48.1753 8.55869 49.6898 11.0198 51.1728 13.4967C51.725 14.4118 51.7881 15.2006 51.2201 16.163C48.3804 20.9906 45.5879 25.834 42.8113 30.6932C42.1881 31.7896 41.8804 31.7187 41.0995 30.7168C39.3956 28.5318 39.4745 26.6544 41.0679 24.3668C42.9375 21.6848 44.3652 18.703 46.0454 15.8869C46.5187 15.0902 46.4714 14.4828 46.0139 13.7176C44.4757 11.146 42.9769 8.5508 41.5097 5.93979C40.5237 4.1807 40.6183 4.05449 42.7087 4.03871C42.9217 4.03082 43.1504 4.03082 43.6553 4.03082Z" fill="white"/>
<path d="M59.8736 28.7369C60.9227 29.8176 60.6624 31.0561 59.7631 32.4839C58.2328 34.9213 56.8681 37.4693 55.4798 39.9935C54.9671 40.9243 54.3123 41.3818 53.2001 41.3818C47.6073 41.3582 42.0066 41.3818 36.4138 41.4292C35.1517 41.4371 35.0571 41.1452 35.5304 39.9541C36.5637 37.3825 38.2282 36.5069 40.9969 36.7278C44.2548 36.996 47.5521 36.7199 50.8257 36.7593C51.7486 36.7672 52.2535 36.428 52.6873 35.6392C54.1309 33.0124 55.6218 30.4171 57.1442 27.8298C58.1697 26.0865 58.3275 26.1102 59.3924 27.9087C59.5107 28.1059 59.6211 28.2952 59.8736 28.7369Z" fill="white"/>
<path d="M46.6921 55.1784C46.2898 56.6299 45.0829 57.0322 43.4027 56.9691C40.5235 56.8744 37.6364 56.977 34.7572 57.048C33.6923 57.0716 32.9744 56.7403 32.4144 55.7779C29.614 50.9345 26.7742 46.1069 23.9187 41.2951C23.2719 40.2065 23.4848 39.9777 24.747 39.7963C27.4921 39.394 29.0855 40.3879 30.2845 42.8964C31.6965 45.8466 33.5897 48.5602 35.2068 51.4078C35.6643 52.2124 36.2165 52.4728 37.1158 52.4491C40.1133 52.3781 43.1109 52.3544 46.1005 52.3702C48.1199 52.3781 48.1751 52.528 47.1654 54.3502C47.055 54.5474 46.9446 54.7446 46.6921 55.1784Z" fill="white"/>
<path d="M17.2137 57.1111C15.7544 57.4898 14.8078 56.6536 14.0111 55.1706C12.6464 52.6385 11.1003 50.1931 9.59368 47.7399C9.03361 46.8327 8.96261 46.0439 9.51479 45.0736C12.2915 40.2145 15.0287 35.3316 17.7501 30.4409C18.3654 29.3365 18.6652 29.3997 19.4619 30.4015C21.1894 32.5707 21.1342 34.4481 19.5723 36.7515C17.7344 39.4572 16.346 42.4547 14.6974 45.2866C14.232 46.0912 14.2872 46.6986 14.7526 47.4559C16.3224 50.0038 17.8448 52.5833 19.3515 55.1785C20.3612 56.9297 20.2665 57.0559 18.1761 57.0954C17.9395 57.1033 17.7107 57.1033 17.2137 57.1111Z" fill="white"/>
<path d="M0.703611 32.6022C-0.361305 31.5294 -0.116768 30.2909 0.766718 28.8553C2.27338 26.402 3.6065 23.8383 4.96328 21.2904C5.46813 20.3517 6.10708 19.8863 7.22721 19.8784C12.82 19.839 18.4207 19.7443 24.0135 19.6339C25.2756 19.6102 25.3702 19.9021 24.9127 21.0932C23.9109 23.6806 22.2623 24.5719 19.4856 24.3826C16.2277 24.1538 12.9304 24.4615 9.6568 24.4694C8.73387 24.4694 8.22902 24.8244 7.81094 25.6132C6.39894 28.2557 4.93961 30.8747 3.44873 33.4699C2.44692 35.2211 2.28915 35.1974 1.20057 33.4226C1.07436 33.2332 0.956036 33.036 0.703611 32.6022Z" fill="white"/>
<path d="M13.5615 6.00296C13.948 4.54363 15.147 4.13344 16.8272 4.17288C19.7064 4.23599 22.5935 4.094 25.4727 3.99145C26.5377 3.95201 27.2634 4.27543 27.8313 5.2378C30.6869 10.0496 33.5819 14.8378 36.5006 19.6181C37.1553 20.6988 36.9502 20.9276 35.6881 21.1327C32.9508 21.5665 31.3416 20.5884 30.1111 18.0957C28.6675 15.1691 26.7428 12.4792 25.0862 9.64735C24.6208 8.85063 24.0686 8.59032 23.1694 8.62187C20.1718 8.73231 17.1822 8.78752 14.1846 8.81119C12.1652 8.82696 12.1021 8.67709 13.0961 6.84701C13.2065 6.64191 13.3169 6.44471 13.5615 6.00296Z" fill="white"/>
<path d="M22.8934 12.5976C19.6435 12.6134 16.3935 12.7396 13.1435 12.7475C12.4178 11.509 11.061 10.6729 9.52281 10.6729C7.20366 10.6729 5.31836 12.5581 5.31836 14.8773C5.31836 17.1965 7.20366 19.0817 9.52281 19.0817C10.9742 19.0817 12.2521 18.3481 13.0094 17.228C15.2181 17.1412 17.4347 17.0308 19.6277 17.1965C21.9389 17.37 23.0039 16.2104 23.9426 14.4987C24.7708 12.9605 24.6131 12.5897 22.8934 12.5976ZM9.52281 17.0781C9.31771 17.0781 9.11262 17.0466 8.9233 16.9992C8.00037 16.7389 7.32198 15.887 7.32198 14.8773C7.32198 13.6625 8.30801 12.6765 9.52281 12.6765C9.88567 12.6765 10.2328 12.7632 10.5404 12.921C11.2425 13.2918 11.7236 14.0254 11.7236 14.8773C11.7236 16.0921 10.7376 17.0781 9.52281 17.0781Z" fill="white"/>
<path d="M13.2618 27.9167C12.3625 26.4258 11.9523 26.3706 11.1004 27.8614C9.34918 30.8984 7.71631 33.9985 5.94145 37.0197C5.9099 37.0749 5.87834 37.1302 5.84679 37.1775C3.59074 37.2406 1.76855 39.1022 1.76855 41.3741C1.76855 43.6932 3.65385 45.5785 5.973 45.5785C8.29215 45.5785 10.1775 43.6932 10.1775 41.3741C10.1775 40.6957 10.0118 40.0488 9.72782 39.4809C10.9111 37.2879 12.0233 35.0477 13.4353 33.0046C14.7369 31.0956 14.2636 29.589 13.2618 27.9167ZM8.05551 42.0682C7.76364 42.9438 6.93537 43.5828 5.96511 43.5828C4.75032 43.5828 3.76429 42.5967 3.76429 41.3819C3.76429 40.4748 4.31647 39.686 5.10529 39.3547C5.36561 39.2442 5.65747 39.1811 5.96511 39.1811C7.17991 39.1811 8.16594 40.1671 8.16594 41.3819C8.16594 41.6186 8.1265 41.8473 8.05551 42.0682Z" fill="white"/>
<path d="M42.3852 15.39C40.7523 12.4556 39.009 9.58425 37.3919 6.64192C37.8888 5.95564 38.1728 5.1116 38.1728 4.20445C38.1728 1.8853 36.2875 0 33.9684 0C31.6492 0 29.7639 1.8853 29.7639 4.20445C29.7639 6.24751 31.2311 7.95926 33.1717 8.33001C34.4338 10.4441 35.759 12.5187 36.7687 14.7432C37.7311 16.8572 39.2614 17.228 41.2177 17.2201C42.9689 17.2122 43.2213 16.8888 42.3852 15.39ZM36.114 4.7093C35.8852 5.67955 35.0096 6.40528 33.9684 6.40528C33.0297 6.40528 32.2172 5.80577 31.9095 4.9775C31.8228 4.74085 31.7675 4.48054 31.7675 4.20445C31.7675 2.98966 32.7536 2.00362 33.9684 2.00362C35.1832 2.00362 36.1692 2.98966 36.1692 4.20445C36.1771 4.37799 36.1534 4.54364 36.114 4.7093Z" fill="white"/>
<path d="M54.9591 16.0999C52.6399 16.0999 50.7546 17.9852 50.7546 20.3043C50.7546 20.7855 50.8335 21.243 50.9834 21.669C49.7528 23.8777 48.6011 26.1337 47.1576 28.1847C45.8166 30.0779 46.2662 31.5924 47.2522 33.2726C48.1357 34.7793 48.5459 34.8345 49.4136 33.3594C51.1569 30.4171 52.7898 27.4116 54.5489 24.4851C54.683 24.5009 54.8171 24.5009 54.9512 24.5009C57.2703 24.5009 59.1556 22.6156 59.1556 20.2964C59.1556 17.9773 57.2782 16.0999 54.9591 16.0999ZM55.5191 22.4262C55.3377 22.4736 55.1563 22.4972 54.9591 22.4972C53.7443 22.4972 52.7582 21.5112 52.7582 20.2964C52.7582 19.8389 52.9002 19.4129 53.1448 19.058C53.5392 18.4742 54.2097 18.0956 54.9591 18.0956C56.1739 18.0956 57.1599 19.0816 57.1599 20.2964C57.1599 21.3219 56.4657 22.1817 55.5191 22.4262Z" fill="white"/>
<path d="M51.5277 42.3127C50.1788 42.3127 48.9719 42.9596 48.1988 43.9535C45.714 44.0087 43.2292 44.1428 40.7681 43.9219C38.4568 43.7169 37.3761 44.8685 36.4216 46.5645C35.5697 48.087 35.7196 48.4656 37.4392 48.4735C40.8943 48.4971 44.3493 48.3946 47.8044 48.4419C48.5065 49.7829 49.9106 50.7059 51.5277 50.7059C53.8468 50.7059 55.7321 48.8206 55.7321 46.5014C55.7321 44.198 53.8468 42.3127 51.5277 42.3127ZM51.5277 48.7101C50.9834 48.7101 50.4864 48.5129 50.0999 48.1816C49.6266 47.7793 49.3268 47.1798 49.3268 46.5093C49.3268 45.2945 50.3129 44.3085 51.5277 44.3085H51.5356C52.7503 44.3085 53.7364 45.2945 53.7364 46.5093C53.7285 47.7241 52.7425 48.7101 51.5277 48.7101Z" fill="white"/>
<path d="M27.6185 52.6622C26.3406 50.5797 24.9917 48.5209 23.9583 46.32C22.9723 44.2218 21.434 43.8668 19.4856 43.8983C17.7423 43.922 17.4899 44.2533 18.3418 45.7363C20.0063 48.6471 21.7811 51.4947 23.4298 54.4055C22.9565 55.0839 22.6804 55.9122 22.6804 56.7957C22.6804 59.1148 24.5657 61.0001 26.8848 61.0001C29.204 61.0001 31.0893 59.1148 31.0893 56.7957C31.0893 54.7368 29.5826 53.0172 27.6185 52.6622ZM26.8848 59.0044C25.6701 59.0044 24.684 58.0183 24.684 56.8035C24.684 56.6458 24.6998 56.488 24.7313 56.3381C24.9443 55.3442 25.8278 54.5948 26.8848 54.5948C27.8235 54.5948 28.6282 55.1865 28.9437 56.0147C29.0305 56.2593 29.0857 56.5196 29.0857 56.7957C29.0857 58.0183 28.0996 59.0044 26.8848 59.0044Z" fill="white"/>
<path d="M85.7133 40.7941C84.7802 40.7941 84.0891 40.7769 83.6398 40.7423L81.4109 48.2585C80.5815 48.4659 79.4238 48.5695 77.9379 48.5695C76.2791 48.5695 74.9314 48.3795 73.8947 47.9993L73.6355 47.5846L85.0394 12.8027C86.3871 12.5954 87.9595 12.4917 89.7565 12.4917C91.7954 12.4917 93.4196 12.6127 94.6291 12.8546L105.826 47.6883C104.616 48.3449 103.251 48.6732 101.731 48.6732C99.9336 48.6732 98.6723 48.3622 97.9466 47.7402C97.2209 47.1181 96.5988 45.9259 96.0805 44.1635L95.0956 40.7423C94.6463 40.7769 93.9725 40.7941 93.074 40.7941H85.7133ZM85.5578 34.2628L87.6312 34.211H91.4152C91.588 34.211 91.8904 34.2196 92.3224 34.2369C92.7543 34.2542 93.074 34.2628 93.2813 34.2628L92.4001 31.049C91.5707 28.1462 90.6204 24.5868 89.5491 20.3708H89.2381C88.9617 21.8567 88.1323 25.157 86.75 30.2714L85.5578 34.2628ZM107.795 26.0727C107.968 25.3816 108.296 24.6127 108.78 23.766C109.264 22.9194 109.748 22.306 110.232 21.9258C113.411 22.1677 115.623 23.7401 116.867 26.6429C118.18 23.5328 120.34 21.9777 123.346 21.9777C124.245 21.9777 125.385 22.1159 126.767 22.3924C126.767 23.4636 126.586 24.7336 126.223 26.2023C125.86 27.671 125.368 28.9237 124.746 29.9604C124.158 29.7531 123.277 29.5803 122.102 29.4421C120.374 29.4421 118.957 30.3233 117.852 32.0857V48.2067C116.711 48.414 115.372 48.5177 113.834 48.5177C112.296 48.5177 110.94 48.414 109.765 48.2067V31.4637C109.765 28.8719 109.109 27.0749 107.795 26.0727ZM149.316 37.8913H135.787C135.856 39.4464 136.253 40.6559 136.979 41.5198C137.705 42.3838 138.897 42.8157 140.556 42.8157C141.385 42.8157 142.344 42.6948 143.433 42.4529C144.521 42.211 145.774 41.8136 147.191 41.2607C148.331 42.4356 149.04 44.0252 149.316 46.0296C146.551 47.9993 143.165 48.9842 139.156 48.9842C136.979 48.9842 135.156 48.6386 133.687 47.9475C132.219 47.2564 131.027 46.2887 130.111 45.0447C129.195 43.8006 128.547 42.3319 128.167 40.6386C127.787 38.9453 127.597 37.0965 127.597 35.0922C127.597 33.157 127.83 31.3686 128.297 29.7272C128.763 28.0857 129.471 26.6602 130.422 25.4507C131.372 24.2412 132.582 23.2909 134.05 22.5997C135.519 21.9086 137.238 21.563 139.208 21.563C140.867 21.563 142.361 21.8395 143.692 22.3924C145.022 22.9453 146.154 23.7055 147.087 24.6732C148.02 25.6408 148.737 26.7984 149.238 28.1462C149.739 29.4939 149.99 30.9626 149.99 32.5522C149.99 34.6602 149.765 36.4399 149.316 37.8913ZM135.735 32.293H142.577V31.7228C142.577 30.4442 142.292 29.3902 141.722 28.5608C141.152 27.7315 140.297 27.3168 139.156 27.3168C138.05 27.3168 137.23 27.7056 136.694 28.4831C136.158 29.2606 135.839 30.5306 135.735 32.293ZM176.893 44.4745C176.72 45.2002 176.392 45.9777 175.908 46.8071C175.424 47.6365 174.923 48.2412 174.405 48.6214C171.986 48.5522 170.12 47.6365 168.806 45.8741C166.56 47.9475 164.124 48.9842 161.497 48.9842C160.15 48.9842 158.975 48.7682 157.973 48.3363C156.97 47.9043 156.124 47.3255 155.433 46.5998C154.742 45.8741 154.223 45.036 153.878 44.0857C153.532 43.1354 153.359 42.1419 153.359 41.1052C153.359 39.6192 153.627 38.3146 154.163 37.1915C154.698 36.0684 155.433 35.1354 156.366 34.3924C157.299 33.6494 158.387 33.0879 159.631 32.7077C160.875 32.3276 162.206 32.1375 163.623 32.1375C164.418 32.1375 165.117 32.1462 165.722 32.1634C166.327 32.1807 166.854 32.2066 167.303 32.2412V31.2563C167.303 29.0792 166.18 27.9907 163.934 27.9907C162.482 27.9907 159.942 28.5436 156.314 29.6494C155.277 28.4399 154.621 26.5565 154.344 23.9993C155.173 23.6883 156.098 23.3945 157.117 23.1181C158.137 22.8416 159.182 22.5997 160.253 22.3924C161.325 22.185 162.379 22.0209 163.415 21.8999C164.452 21.779 165.385 21.7185 166.215 21.7185C167.424 21.7185 168.59 21.8913 169.713 22.2369C170.837 22.5824 171.821 23.1094 172.668 23.8179C173.515 24.5263 174.189 25.442 174.69 26.5652C175.191 27.6883 175.441 29.0274 175.441 30.5824V41.1052C175.441 42.6948 175.925 43.8179 176.893 44.4745ZM161.238 40.5868C161.238 42.211 162.171 43.0231 164.037 43.0231C165.005 43.0231 166.094 42.522 167.303 41.5198V37.373C166.612 37.3384 166.033 37.3125 165.567 37.2952C165.1 37.2779 164.746 37.2693 164.504 37.2693C162.327 37.2693 161.238 38.3751 161.238 40.5868ZM213.178 14.617C213.558 15.6537 213.748 16.7595 213.748 17.9345C213.748 20.1807 212.608 21.3038 210.327 21.3038H201.411V22.7034L201.204 25.1397L201.048 26.0209C201.912 25.8135 202.845 25.7099 203.847 25.7099C207.372 25.7099 210.102 26.712 212.038 28.7164C213.973 30.7207 214.94 33.3989 214.94 36.7509C214.94 38.6861 214.603 40.414 213.93 41.9345C213.256 43.455 212.34 44.7337 211.182 45.7704C210.025 46.8071 208.66 47.6019 207.087 48.1548C205.515 48.7078 203.847 48.9842 202.085 48.9842C197.8 48.9842 194.344 47.792 191.718 45.4075C191.787 44.9928 191.925 44.535 192.133 44.0339C192.34 43.5328 192.59 43.0404 192.884 42.5566C193.178 42.0728 193.506 41.6149 193.869 41.1829C194.232 40.7509 194.603 40.3967 194.983 40.1203C196.158 40.9496 197.282 41.5458 198.353 41.9086C199.424 42.2715 200.409 42.4529 201.307 42.4529C203.001 42.4529 204.323 41.9432 205.273 40.9237C206.223 39.9043 206.698 38.617 206.698 37.0619C206.698 35.4032 206.206 34.1246 205.221 33.2261C204.236 32.3276 203.035 31.8783 201.618 31.8783C200.893 31.8783 200.141 32.0079 199.364 32.2671C198.586 32.5263 197.817 32.9323 197.057 33.4853C196.366 33.3125 195.623 32.9583 194.828 32.4226C194.033 31.887 193.428 31.3082 193.014 30.6861L193.947 15.0317L194.361 14.617H213.178ZM228.677 41.6235L228.625 37.7876V30.9971C228.625 30.4788 228.677 29.4939 228.781 28.0425C228.884 26.5911 228.953 25.5716 228.988 24.9842C227.191 26.9885 224.893 28.5781 222.094 29.7531C221.299 29.4075 220.573 28.7941 219.917 27.9129C219.26 27.0317 218.863 26.09 218.724 25.0878C223.562 22.0814 226.949 18.5911 228.884 14.617C230.059 14.4096 231.346 14.306 232.746 14.306C234.146 14.306 235.398 14.4096 236.504 14.617V37.7876L236.452 41.6235L239.977 41.5717H242.776C243.053 42.6084 243.191 43.7142 243.191 44.8892C243.191 46.0641 243.053 47.17 242.776 48.2067H221.161C220.884 47.1008 220.746 45.9777 220.746 44.8373C220.746 43.697 220.884 42.6084 221.161 41.5717H225.359L228.677 41.6235Z" fill="white"/>
</g>
<defs>
<clipPath id="clip0_246_95">
<rect width="243.191" height="61" fill="white"/>
</clipPath>
</defs>
</svg>
