<svg width="131" height="131" viewBox="0 0 131 131" fill="none" xmlns="http://www.w3.org/2000/svg">
<path d="M65.5 0C29.344 0 0 29.344 0 65.5C0 101.656 29.344 131 65.5 131C101.656 131 131 101.656 131 65.5C131 29.344 101.656 0 65.5 0ZM65.5 19.65C76.373 19.65 85.15 28.427 85.15 39.3C85.15 50.173 76.373 58.95 65.5 58.95C54.627 58.95 45.85 50.173 45.85 39.3C45.85 28.427 54.627 19.65 65.5 19.65ZM65.5 112.66C49.125 112.66 34.6495 104.276 26.2 91.569C26.3965 78.5345 52.4 71.395 65.5 71.395C78.5345 71.395 104.604 78.5345 104.8 91.569C96.3505 104.276 81.875 112.66 65.5 112.66Z" fill="#D9D9D9"/>
</svg>
