<svg xmlns="http://www.w3.org/2000/svg" width="24" height="24" viewBox="0 0 24 24" fill="none">
  <path d="M22.7251 2.31124C22.5328 2.12861 22.272 2.026 22 2.026H16C15.6689 2.026 15.3582 2.17783 15.1657 2.43366L7.64749 12.4254L5.67485 10.552C5.27438 10.1717 4.6251 10.1717 4.22464 10.552L1.39621 13.2382C0.995743 13.6185 0.995742 14.2351 1.39621 14.6154L3.49953 16.6129L2.10331 17.9389C1.70285 18.3193 1.70285 18.9359 2.10331 19.3162L4.93174 22.0024C5.33221 22.3827 5.98149 22.3827 6.38196 22.0024L7.75401 20.6993L9.44766 22.4168C9.63954 22.6114 9.90702 22.7228 10.1877 22.725C10.4684 22.7272 10.7378 22.62 10.933 22.4284L13.7367 19.6772C14.1192 19.3018 14.1218 18.7066 13.7425 18.3283L12.1694 16.7594L22.5901 9.79637C22.863 9.61398 23.0254 9.31684 23.0254 8.99988V2.99988C23.0254 2.74159 22.9174 2.49388 22.7251 2.31124ZM20.9745 8.49431L10.0165 15.8165C9.77253 15.9795 9.6154 16.2353 9.5861 16.5173C9.5568 16.7992 9.65824 17.0793 9.86396 17.2845L11.5783 18.9944L10.2083 20.3388L8.52665 18.6334C8.33676 18.4408 8.07273 18.3297 7.79497 18.3254C7.51721 18.321 7.24949 18.4239 7.05306 18.6105L5.65685 19.9365L4.27864 18.6276L5.67485 17.3016C6.07532 16.9213 6.07532 16.3046 5.67485 15.9243L3.57153 13.9268L4.94974 12.6179L7.05306 14.6154C7.26618 14.8178 7.56227 14.9209 7.86265 14.8974C8.16302 14.8738 8.43726 14.7259 8.6125 14.493L16.5276 3.97376L20.9745 3.97376V8.49431Z" fill="white" />
  <path d="M18.325 17.3018C17.9245 16.9214 17.9245 16.3048 18.325 15.9245L21.1534 13.2383C21.5539 12.858 22.2032 12.858 22.6036 13.2383C23.0041 13.6187 23.0041 14.2353 22.6036 14.6156L20.5003 16.6131L21.8965 17.9391C22.297 18.3194 22.297 18.9361 21.8965 19.3164L19.0681 22.0025C18.6676 22.3829 18.0183 22.3829 17.6179 22.0025L16.5572 20.9952C16.1568 20.6149 16.1568 19.9983 16.5572 19.618C16.9577 19.2376 17.607 19.2376 18.0074 19.618L18.343 19.9366L19.7212 18.6277L18.325 17.3018Z" fill="white"/><path d="M2.00019 2.02703C1.72821 2.02703 1.46737 2.12964 1.27506 2.3123C1.08274 2.49495 0.974712 2.74268 0.974731 3.00098L0.975166 8.77881C0.975206 9.31667 1.43435 9.75266 2.0007 9.75262C2.56704 9.75258 3.02612 9.31653 3.02608 8.77867L3.02572 3.97479L6.51516 3.97481L8.23467 5.96294C8.59413 6.37856 9.24032 6.43874 9.67796 6.09736C10.1156 5.75597 10.179 5.14229 9.8195 4.72666L7.79232 2.38279C7.59754 2.15758 7.30679 2.02705 6.99991 2.02705L2.00019 2.02703Z" fill="white" />
</svg>
