<svg width="112" height="39" viewBox="0 0 112 39" fill="none" xmlns="http://www.w3.org/2000/svg">
    <path d="M19.992 17.214c-.798 0-1.428.702-1.428 1.576 0 .875.644 1.577 1.428 1.577.798 0 1.428-.702 1.428-1.577 0-.874-.644-1.576-1.428-1.576zm-5.11 0c-.798 0-1.428.702-1.428 1.576 0 .875.644 1.577 1.428 1.577.798 0 1.428-.702 1.428-1.577.014-.874-.63-1.576-1.428-1.576z" fill="#fff" />
    <path d="M26.796 5.289H8.036c-1.582 0-2.87 1.319-2.87 2.938v19.206c0 1.62 1.288 2.939 2.87 2.939h15.876l-.742-2.623 1.792 1.691 1.694 1.59 3.024 2.681V8.227c-.014-1.62-1.302-2.938-2.884-2.938zM21.392 23.85s-.504-.616-.924-1.147c1.834-.53 2.534-1.69 2.534-1.69a7.94 7.94 0 01-1.61.845c-.7.3-1.372.487-2.03.616a9.582 9.582 0 01-3.626-.014 10.465 10.465 0 01-2.058-.617 8.112 8.112 0 01-1.022-.487c-.042-.029-.084-.043-.126-.072-.028-.014-.042-.028-.056-.028-.252-.143-.392-.244-.392-.244s.672 1.133 2.45 1.677c-.42.545-.938 1.175-.938 1.175-3.094-.1-4.27-2.164-4.27-2.164 0-4.572 2.016-8.284 2.016-8.284 2.016-1.534 3.92-1.49 3.92-1.49l.14.171c-2.52.731-3.668 1.863-3.668 1.863s.308-.172.826-.4c1.498-.675 2.688-.847 3.178-.904.084-.014.154-.029.238-.029.854-.114 1.82-.143 2.828-.028 1.33.157 2.758.559 4.214 1.361 0 0-1.106-1.075-3.486-1.806l.196-.229s1.918-.043 3.92 1.49c0 0 2.016 3.713 2.016 8.285 0-.014-1.176 2.05-4.27 2.15zm21.14-12.427h-4.648v5.347l3.094 2.852v-5.189h1.652c1.05 0 1.568.516 1.568 1.348v3.97c0 .831-.49 1.39-1.568 1.39h-4.76v3.025h4.648c2.492.014 4.83-1.262 4.83-4.186V15.71c.014-2.981-2.324-4.286-4.816-4.286zm24.36 8.557v-4.386c0-1.576 2.772-1.935 3.612-.358l2.562-1.06c-1.008-2.265-2.842-2.925-4.368-2.925-2.492 0-4.956 1.477-4.956 4.343v4.386c0 2.895 2.464 4.343 4.9 4.343 1.568 0 3.444-.788 4.48-2.852l-2.744-1.29c-.672 1.763-3.486 1.333-3.486-.2zm-8.47-3.784c-.966-.215-1.61-.573-1.652-1.19.056-1.476 2.282-1.533 3.584-.114l2.058-1.62c-1.288-1.605-2.744-2.035-4.242-2.035-2.282 0-4.494 1.319-4.494 3.813 0 2.422 1.82 3.726 3.822 4.042 1.022.143 2.156.559 2.128 1.275-.084 1.362-2.828 1.29-4.074-.258l-1.988 1.906c1.162 1.534 2.744 2.308 4.228 2.308 2.282 0 4.816-1.347 4.914-3.813.14-3.11-2.072-3.898-4.284-4.314zm-9.38 7.955h3.136V11.423h-3.136v12.728zm52.878-12.728h-4.648v5.347l3.094 2.852v-5.189h1.652c1.05 0 1.568.516 1.568 1.348v3.97c0 .831-.49 1.39-1.568 1.39h-4.76v3.025h4.662c2.492.014 4.83-1.262 4.83-4.186V15.71c0-2.981-2.338-4.286-4.83-4.286zm-22.806-.171c-2.576 0-5.138 1.433-5.138 4.371v4.343c0 2.91 2.576 4.371 5.166 4.371 2.576 0 5.138-1.462 5.138-4.371v-4.343c0-2.924-2.59-4.371-5.166-4.371zm2.016 8.714c0 .917-1.008 1.39-2.002 1.39-1.008 0-2.016-.444-2.016-1.39v-4.343c0-.932.98-1.433 1.96-1.433 1.022 0 2.058.444 2.058 1.433v4.343zm14.406-4.343c-.07-2.981-2.058-4.185-4.62-4.185h-4.97v12.728h3.178v-4.042h.56l2.884 4.042h3.92L93.1 19.794c1.498-.487 2.436-1.82 2.436-4.171zm-4.564 1.72h-1.848v-2.91h1.848c1.974 0 1.974 2.91 0 2.91z" fill="#fff" />
</svg>