<svg width="16" height="16" viewBox="0 0 16 16" fill="none" xmlns="http://www.w3.org/2000/svg">
    <path d="M3.89189 8C3.89189 5.73115 5.73115 3.89189 8 3.89189C10.2688 3.89189 12.1081 5.73115 12.1081 8C12.1081 10.2688 10.2688 12.1081 8 12.1081C5.73115 12.1081 3.89189 10.2688 3.89189 8ZM5.33335 8C5.33335 9.47278 6.52722 10.6667 8 10.6667C9.47278 10.6667 10.6667 9.47278 10.6667 8C10.6667 6.52722 9.47278 5.33335 8 5.33335C6.52722 5.33335 5.33335 6.52722 5.33335 8Z" fill="white"/><path d="M12.2704 4.68955C12.8006 4.68955 13.2304 4.25979 13.2304 3.7296C13.2304 3.19941 12.8006 2.7696 12.2704 2.7696C11.7403 2.7696 11.3104 3.19941 11.3104 3.7296C11.3104 4.25979 11.7403 4.68955 12.2704 4.68955Z" fill="white" />
    <path d="M4.70162 0.0481372C5.55488 0.00918864 5.82734 0 8 0C10.1727 0 10.4451 0.00918864 11.2984 0.0481372C12.1499 0.0869943 12.7314 0.222217 13.2403 0.420023C13.7664 0.624457 14.2125 0.898012 14.6573 1.34272C15.102 1.78747 15.3756 2.23365 15.58 2.75968C15.7778 3.26857 15.913 3.8501 15.9519 4.70162C15.9908 5.55488 16 5.82734 16 8C16 10.1727 15.9908 10.4451 15.9519 11.2984C15.913 12.1499 15.7778 12.7314 15.58 13.2403C15.3756 13.7664 15.102 14.2125 14.6573 14.6573C14.2125 15.102 13.7664 15.3756 13.2403 15.58C12.7314 15.7778 12.1499 15.913 11.2984 15.9519C10.4451 15.9908 10.1727 16 8 16C5.82734 16 5.55488 15.9908 4.70162 15.9519C3.8501 15.913 3.26857 15.7778 2.75968 15.58C2.2336 15.3756 1.78747 15.102 1.34272 14.6573C0.897966 14.2125 0.624411 13.7664 0.419977 13.2403C0.222217 12.7314 0.0869944 12.1499 0.0480915 11.2984C0.00918866 10.4451 0 10.1727 0 8C0 5.82734 0.00918866 5.55488 0.0480915 4.70162C0.0869944 3.8501 0.222217 3.26857 0.419977 2.75968C0.624411 2.23365 0.897966 1.78747 1.34272 1.34272C1.78747 0.898012 2.2336 0.624457 2.75968 0.420023C3.26857 0.222217 3.8501 0.0869943 4.70162 0.0481372ZM11.2327 1.48809C10.3891 1.4496 10.1361 1.44146 8 1.44146C5.86391 1.44146 5.61088 1.4496 4.76731 1.48809C3.98734 1.5237 3.56375 1.65403 3.28183 1.76352C2.90839 1.90866 2.64192 2.08206 2.36197 2.36197C2.08201 2.64192 1.90862 2.90843 1.76352 3.28183C1.65399 3.56375 1.52366 3.98734 1.48805 4.76731C1.44955 5.61088 1.44142 5.86391 1.44142 8C1.44142 10.1361 1.44955 10.3891 1.48805 11.2327C1.52366 12.0127 1.65399 12.4363 1.76352 12.7182C1.90862 13.0916 2.08201 13.3581 2.36197 13.638C2.64192 13.918 2.90839 14.0913 3.28183 14.2365C3.56375 14.346 3.98734 14.4763 4.76731 14.5119C5.61079 14.5504 5.86377 14.5586 8 14.5586C10.1362 14.5586 10.3893 14.5504 11.2327 14.5119C12.0127 14.4763 12.4363 14.346 12.7182 14.2365C13.0916 14.0913 13.3581 13.918 13.638 13.638C13.918 13.3581 14.0913 13.0916 14.2365 12.7182C14.346 12.4363 14.4763 12.0127 14.5119 11.2327C14.5504 10.3891 14.5586 10.1361 14.5586 8C14.5586 5.86391 14.5504 5.61088 14.5119 4.76731C14.4763 3.98734 14.346 3.56375 14.2365 3.28183C14.0913 2.90843 13.918 2.64192 13.638 2.36197C13.3581 2.08206 13.0916 1.90866 12.7182 1.76352C12.4363 1.65403 12.0127 1.5237 11.2327 1.48809Z" fill="white" />
</svg>