<svg xmlns="http://www.w3.org/2000/svg" width="24" height="24" viewBox="0 0 24 24" fill="none">
<path d="M10.0001 2C10.5524 2 11.0001 2.44772 11.0001 3V4H13.9773C13.9926 3.99965 14.0079 3.99964 14.0233 4H17C17.5523 4 18 4.44772 18 5C18 5.55228 17.5523 6 17 6H14.6671C13.4239 8.87973 11.6933 11.4366 9.96936 13.5249C10.467 14.0518 11.0395 14.6253 11.7071 15.2929C12.0976 15.6834 12.0976 16.3166 11.7071 16.7071C11.3166 17.0976 10.6834 17.0976 10.2929 16.7071L10.2379 16.6521C9.65305 16.0673 9.12637 15.5406 8.64912 15.0404C7.032 16.8009 5.53751 18.0969 4.6 18.8C4.15817 19.1314 3.53137 19.0418 3.2 18.6C2.86863 18.1582 2.95817 17.5314 3.4 17.2C4.29151 16.5314 5.74733 15.2621 7.31506 13.5355C6.35293 12.335 5.64409 11.0946 5.05132 9.31623C4.87667 8.79228 5.15983 8.22596 5.68377 8.05132C6.20772 7.87667 6.77404 8.15983 6.94868 8.68377C7.40384 10.0492 7.91521 11.0232 8.64363 11.9867C10.0293 10.2747 11.4041 8.2478 12.4716 6H3C2.44772 6 2 5.55228 2 5C2 4.44772 2.44772 4 3 4H9.00011V3C9.00011 2.44772 9.44783 2 10.0001 2Z" fill="white" />
<path d="M17.1298 10.071C17.2181 10.0358 17.3117 10.013 17.4076 10.004C17.4597 9.99917 17.5116 9.99846 17.563 10.0017C17.6692 10.0085 17.7728 10.0322 17.8702 10.071C18.0001 10.1227 18.1136 10.199 18.2071 10.2925C18.3008 10.3861 18.3772 10.4997 18.429 10.6298C18.4354 10.6458 18.4414 10.6621 18.4469 10.6784L21.9439 20.6696C22.1263 21.1909 21.8516 21.7614 21.3304 21.9439C20.8091 22.1263 20.2386 21.8516 20.0561 21.3304L19.2405 19H16C15.9204 19 15.8431 18.9907 15.7689 18.9732L14.9439 21.3304C14.7614 21.8516 14.1909 22.1263 13.6696 21.9439C13.1484 21.7614 12.8737 21.1909 13.0561 20.6696L16.5531 10.6785C16.5586 10.6621 16.5646 10.6458 16.571 10.6298C16.6227 10.4998 16.6991 10.3863 16.7927 10.2927C16.8863 10.1991 16.9998 10.1227 17.1298 10.071ZM17.5 14.0271L16.4595 17H18.5405L17.5 14.0271Z" fill="white" />
</svg>