<svg xmlns="http://www.w3.org/2000/svg" width="24" height="24" viewBox="0 0 24 24" fill="none">
<path d="M8.03823 12.0502C8.03823 9.84018 9.84806 8.03196 12.0601 8.03196C14.2721 8.03196 16.0819 9.84018 16.0819 12.0502C16.0819 14.2603 14.2721 16.0685 12.0601 16.0685C9.84806 16.0685 8.03823 14.2603 8.03823 12.0502ZM10.0492 12.0502C10.0492 13.1553 10.9541 14.0594 12.0601 14.0594C13.1661 14.0594 14.071 13.1553 14.071 12.0502C14.071 10.9452 13.1661 10.0411 12.0601 10.0411C10.9541 10.0411 10.0492 10.9452 10.0492 12.0502Z" fill="white" />
<path d="M21.2098 9.03653C21.813 9.23744 22.3158 9.73973 22.6174 10.242C22.9191 10.7443 23.1201 11.4475 22.9191 11.9498C22.9191 12.5525 22.718 13.2557 22.4163 13.758C22.1147 14.2603 21.612 14.6621 21.0087 14.9635L20.2043 15.3653L20.5059 16.169C20.707 16.6712 20.8076 17.274 20.707 17.7763C20.6065 18.2785 20.4054 18.8813 20.1038 19.2831C19.8543 19.6985 19.4673 19.9765 19.1133 20.2307C19.0393 20.2839 18.9668 20.336 18.8972 20.3881C18.495 20.6895 17.8917 20.79 17.389 20.79C16.9868 20.79 16.5847 20.6895 16.1825 20.589L15.3781 20.2877L14.9759 21.0913C14.7748 21.6941 14.2721 22.1963 13.7694 22.4977C13.2666 22.7991 12.5628 23 11.9595 23C11.3562 23 10.6524 22.8995 10.1497 22.4977C9.64697 22.1963 9.24478 21.6941 8.94314 21.0913L8.64151 20.3881L7.83714 20.6895C7.43495 20.79 7.03277 20.8904 6.63058 20.8904C6.02731 20.8904 5.52458 20.79 5.02184 20.4886C4.51911 20.1872 4.11693 19.7854 3.81529 19.3836C3.51365 18.9817 3.31256 18.379 3.21201 17.8767C3.11147 17.3744 3.21201 16.7717 3.41311 16.2694L3.71475 15.4658L2.91038 15.0639C2.3071 14.863 1.80437 14.3607 1.50273 13.8584C1.20109 13.3562 1 12.653 1 12.0502C1 11.4475 1.20109 10.7443 1.60328 10.1416C1.90492 9.63927 2.40765 9.23744 3.01092 8.93607L3.71475 8.6347L3.41311 7.83105C3.21201 7.32877 3.11147 6.72603 3.21201 6.22374C3.31256 5.72146 3.51365 5.11872 3.81529 4.71689C4.06476 4.30148 4.45178 4.0235 4.80571 3.76928C4.87972 3.71612 4.95229 3.66399 5.02184 3.61187C5.52458 3.41096 6.02731 3.21005 6.63058 3.21005C7.03277 3.21005 7.43495 3.3105 7.83714 3.41096L8.64151 3.71233L8.94314 3.00913C9.24478 2.40639 9.64697 1.90411 10.2502 1.50228C10.753 1.20091 11.4568 1 12.0601 1C12.6634 1 13.3672 1.20091 13.9704 1.60274C14.4732 1.90411 14.8754 2.40639 15.177 3.00913L15.4786 3.71233L16.283 3.41096C16.6852 3.3105 17.0874 3.21005 17.4896 3.21005C18.0928 3.21005 18.5956 3.3105 19.0983 3.61187C19.601 3.91324 20.0032 4.31507 20.3049 4.71689C20.6065 5.11872 20.8076 5.72146 20.9081 6.22374C21.0087 6.72603 20.9081 7.32877 20.707 7.83105L20.4054 8.6347L21.2098 9.03653ZM20.3049 13.2557C20.6065 13.1553 20.8076 12.9543 20.9081 12.7534C21.0087 12.5525 21.1092 12.3516 21.1092 11.9498C21.1092 11.7489 21.0087 11.4475 20.9081 11.2466C20.707 11.0457 20.5059 10.8447 20.3049 10.7443L19.3999 10.3425C18.9978 10.1416 18.6961 9.73973 18.495 9.3379C18.2939 8.93607 18.2939 8.43379 18.495 8.03196L18.8972 7.0274C18.9978 6.82648 18.9978 6.62557 18.9978 6.42466C18.9978 6.22374 18.8972 6.02283 18.7967 5.82192C18.6961 5.72146 18.495 5.52054 18.2939 5.42009C18.0928 5.31963 17.8917 5.21918 17.6907 5.21918C17.4896 5.21918 17.389 5.21918 17.1879 5.31963L16.1825 5.72146C15.9814 5.82192 15.6797 5.82192 15.4786 5.82192C15.0765 5.82192 14.7748 5.72146 14.4732 5.52055C14.1715 5.31963 13.8699 5.01826 13.7694 4.71689L13.3672 3.81279C13.2666 3.51142 13.0655 3.3105 12.8644 3.21005C12.6634 3.10959 12.3617 3.00913 12.0601 3.00913C11.7584 3.00913 11.5573 3.10959 11.4568 3.21005C11.2557 3.41096 11.0546 3.61187 10.9541 3.81279L10.5519 4.71689C10.3508 5.01826 10.1497 5.31963 9.84806 5.52055C9.54642 5.72146 9.14424 5.82192 8.8426 5.82192C8.54096 5.82192 8.33987 5.82192 8.13877 5.72146L7.13331 5.31963C6.93222 5.21918 6.83168 5.21918 6.63058 5.21918C6.42949 5.21918 6.2284 5.31963 6.02731 5.42009C5.82622 5.52055 5.62512 5.621 5.42403 5.82192C5.32348 6.02283 5.22294 6.22374 5.22294 6.42466V7.12785L5.62512 8.13242C5.82621 8.53425 5.82621 9.03653 5.62512 9.43836C5.42403 9.94064 5.12239 10.242 4.72021 10.4429L3.81529 10.8447C3.51365 10.9452 3.31256 11.1461 3.21201 11.347C3.11147 11.5479 3.01092 11.7489 3.01092 12.0502C3.01092 12.3516 3.11147 12.5525 3.31256 12.7534C3.51365 12.9543 3.71475 13.1553 3.91584 13.2557L4.82075 13.6575C5.22294 13.8584 5.52458 14.2603 5.72567 14.6621C5.82621 15.0639 5.92676 15.5662 5.72567 15.968L5.32348 16.9726C5.22294 17.1735 5.22294 17.3744 5.22294 17.5753C5.22294 17.7763 5.32348 17.9772 5.42403 18.1781C5.52458 18.2785 5.72567 18.4795 5.92676 18.5799C6.12785 18.6804 6.32894 18.7808 6.53004 18.7808C6.73113 18.7808 6.83168 18.7808 7.03277 18.6804L8.03823 18.2785C8.23932 18.1781 8.54096 18.1781 8.74205 18.1781C9.14424 18.1781 9.44587 18.2785 9.74751 18.4795C10.0492 18.6804 10.3508 18.9817 10.4513 19.2831L10.8535 20.1872C10.9541 20.4886 11.1552 20.6895 11.3563 20.79C11.5573 20.8904 11.859 20.9909 12.0601 20.9909C12.3617 20.9909 12.6634 20.8904 12.8644 20.79C13.0655 20.589 13.2666 20.3881 13.3672 20.1872L13.7694 19.2831C13.9704 18.9817 14.1715 18.6804 14.4732 18.4795C14.7748 18.2785 15.177 18.1781 15.4786 18.1781C15.7803 18.1781 15.9814 18.1781 16.1825 18.2785L17.1879 18.6804C17.389 18.7808 17.4896 18.7808 17.6907 18.7808C17.8917 18.7808 18.0928 18.6804 18.2939 18.5799C18.495 18.4795 18.6961 18.379 18.7967 18.1781C18.8972 17.9772 18.9978 17.7763 18.9978 17.5753C18.9978 17.3744 18.9978 17.1735 18.8972 16.9726L18.495 15.968C18.2939 15.5662 18.2939 15.0639 18.495 14.6621C18.6961 14.1598 18.9978 13.8584 19.3999 13.6575L20.3049 13.2557Z" fill="white" />
</svg>