<svg className="ml-[14px]" xmlns="http://www.w3.org/2000/svg" width="24" height="24" viewBox="0 0 24 24" fill="none">
                    <path d="M9.99813 2.86715C10.477 2.59205 10.6422 1.98081 10.3671 1.50192C10.092 1.02303 9.48076 0.857835 9.00187 1.13294L2.50563 4.86483C1.57425 5.39987 1 6.39203 1 7.46615V16.649C1 17.2013 1.44772 17.649 2 17.649C2.55228 17.649 3 17.2013 3 16.649V7.46615C3 7.10811 3.19142 6.77739 3.50187 6.59904L9.99813 2.86715Z" fill="#B3B4D0" />
                    <path d="M13.9981 5.43947C13.6897 5.26227 13.3103 5.26227 13.0019 5.43947L7.50187 8.59904C7.19142 8.77739 7 9.10811 7 9.46615V17.4914C7 17.8494 7.19142 18.1802 7.50187 18.3585L10.4981 20.0798C10.977 20.3549 11.1422 20.9661 10.8671 21.445C10.592 21.9239 9.98076 22.0891 9.50187 21.814L6.50563 20.0927C5.57425 19.5577 5 18.5655 5 17.4914V9.46615C5 8.39203 5.57425 7.39987 6.50563 6.86483L12.0056 3.70525C12.931 3.17368 14.069 3.17368 14.9944 3.70525L20.4944 6.86483C21.4257 7.39987 22 8.39203 22 9.46615V11.7554C22 12.3077 21.5523 12.7554 21 12.7554C20.4477 12.7554 20 12.3077 20 11.7554V9.46615C20 9.10811 19.8086 8.77739 19.4981 8.59904L13.9981 5.43947Z" fill="#B3B4D0" />
                    <path d="M17 12C17.3761 12 17.7204 12.2111 17.8911 12.5462L19.2796 15.2728H22C22.4061 15.2728 22.7719 15.5184 22.9256 15.8943C23.0793 16.2703 22.9904 16.7018 22.7006 16.9863L20.611 19.0379L21.3024 21.7533C21.3986 22.1312 21.2664 22.5306 20.9636 22.7764C20.6608 23.0222 20.2427 23.0696 19.8927 22.8977L17 21.4777L14.1073 22.8977C13.7573 23.0696 13.3392 23.0222 13.0364 22.7764C12.7336 22.5306 12.6014 22.1312 12.6976 21.7533L13.389 19.0379L11.2994 16.9863C11.0096 16.7018 10.9207 16.2703 11.0744 15.8943C11.2281 15.5184 11.5939 15.2728 12 15.2728H14.7204L16.1089 12.5462C16.2796 12.2111 16.6239 12 17 12ZM17 15.2037L16.2244 16.7266C16.0538 17.0617 15.7094 17.2728 15.3333 17.2728H14.4459L15.2006 18.0138C15.4547 18.2632 15.5569 18.629 15.4691 18.9741L15.1702 20.148L16.5593 19.466C16.8373 19.3296 17.1627 19.3296 17.4407 19.466L18.8298 20.148L18.5309 18.9741C18.4431 18.629 18.5453 18.2632 18.7994 18.0138L19.5541 17.2728H18.6667C18.2906 17.2728 17.9462 17.0617 17.7756 16.7266L17 15.2037Z" fill="#B3B4D0" />
                </svg>