<svg width="16" height="16" viewBox="0 0 16 16" fill="none" xmlns="http://www.w3.org/2000/svg">
    <path d="M14.3625 4.78796C14.3683 4.92671 14.3716 5.06627 14.3716 5.20666C14.3716 9.47686 11.0702 14.4 5.03265 14.4C3.17878 14.4 1.45341 13.8654 0 12.9488C0.257021 12.9782 0.518188 12.9937 0.783501 12.9937C2.32148 12.9937 3.73676 12.4771 4.86019 11.6103C3.42336 11.5842 2.21121 10.6497 1.79418 9.36586C1.99399 9.40422 2.19961 9.42462 2.41103 9.42462C2.71033 9.42462 3.00052 9.38463 3.27578 9.31118C1.77428 9.01409 0.643383 7.70822 0.643383 6.1428V6.10199C1.08612 6.34358 1.59188 6.48886 2.12996 6.506C1.24946 5.92652 0.669914 4.93732 0.669914 3.81672C0.669914 3.22418 0.831589 2.66918 1.11431 2.19172C2.73355 4.14645 5.15204 5.43355 7.87978 5.56822C7.82423 5.33153 7.79521 5.08505 7.79521 4.83122C7.79521 3.04707 9.26438 1.6 11.0776 1.6C12.022 1.6 12.8751 1.99258 13.4737 2.62103C14.2216 2.47575 14.9238 2.20723 15.5581 1.83669C15.3135 2.59083 14.7928 3.22418 14.1146 3.6241C14.7787 3.54657 15.4113 3.37272 16 3.11563C15.5597 3.76367 15.0034 4.33254 14.3625 4.78796Z" fill="fff" />
</svg>