<svg width="16" height="16" viewBox="0 0 16 16" fill="none" xmlns="http://www.w3.org/2000/svg">
    <path d="M6.4 10.5714V5.42845L10.5567 8.00007L6.4 10.5714ZM15.6656 3.87368C15.4816 3.13623 14.9395 2.55527 14.2511 2.35814C13.0033 2 7.99993 2 7.99993 2C7.99993 2 2.99665 2 1.74889 2.35814C1.06048 2.55527 0.518385 3.13623 0.334395 3.87368C0 5.21071 0 7.99993 0 7.99993C0 7.99993 0 10.7893 0.334395 12.1262C0.518385 12.8636 1.06048 13.4447 1.74889 13.6417C2.99665 14 7.99993 14 7.99993 14C7.99993 14 13.0033 14 14.2511 13.6417C14.9395 13.4447 15.4816 12.8636 15.6656 12.1262C16 10.7893 16 7.99993 16 7.99993C16 7.99993 16 5.21071 15.6656 3.87368Z" fill="white" />
</svg>